<?xml version="1.0" encoding="utf-8"?>
<!-- Generator: Adobe Illustrator 16.0.0, SVG Export Plug-In . SVG Version: 6.00 Build 0)  -->
<!DOCTYPE svg PUBLIC "-//W3C//DTD SVG 1.1//EN" "http://www.w3.org/Graphics/SVG/1.1/DTD/svg11.dtd">
<svg version="1.1" id="Layer_1" xmlns="http://www.w3.org/2000/svg" xmlns:xlink="http://www.w3.org/1999/xlink" x="0px" y="0px"
	 width="609.648px" height="670.332px" viewBox="0 0 609.648 670.332" enable-background="new 0 0 609.648 670.332"
	 xml:space="preserve">
<g id="Layer_1_1_">
</g>
<g id="cirkel_x5F_buiten_x5F_boven">
	<path fill="#000000" d="M304.832,40.949h0.019c69.597-0.001,125.889,54.663,128.161,124.454v0.144h39.631
		C471.355,73.906,396.771-0.005,304.826,0c-91.964-0.004-166.534,73.903-167.818,165.547h39.616
		C178.9,95.627,235.216,40.958,304.832,40.949"/>
</g>
<g id="cirkel_x5F_buiten_x5F_onder">
	<path fill="#000000" d="M304.824,340.735c91.962,0.004,166.535-73.903,167.816-165.548h-39.614
		c-2.277,69.92-58.595,124.59-128.21,124.599h-0.016c-69.596,0-125.888-54.661-128.162-124.452v-0.146h-39.631
		C138.296,266.828,212.878,340.739,304.824,340.735"/>
</g>
<g id="cirkel_x5F_binnen_x5F_boven">
	<path fill="#000000" d="M304.853,49.342h-0.017c-65.017,0.01-117.615,51.038-119.81,116.205h45.693
		c1.304-39.921,33.868-71.942,74.114-71.947c40.235-0.004,72.789,32.022,74.089,71.947h45.7
		C422.498,100.437,369.888,49.342,304.853,49.342"/>
</g>
<g id="cirkel_x5F_binnen_x5F_onder">
	<path fill="#000000" d="M304.796,291.394h0.017c65.015-0.007,117.615-51.039,119.813-116.206H378.93
		c-1.304,39.921-33.865,71.945-74.111,71.951c-40.236,0.004-72.793-32.025-74.092-71.95h-45.7v0.008
		C187.148,240.295,239.761,291.394,304.796,291.394"/>
</g>
<g id="rotterdam">
	<g>
		<path fill="#000000" d="M72.476,607.295h23.738c7.673,0,12.979,2.008,16.351,5.379c2.94,2.939,4.447,6.74,4.447,11.688v0.145
			c0,7.745-4.088,12.837-10.327,15.489l11.978,17.499h-15.993l-10.112-15.203H86.39v15.203H72.476V607.295z M95.641,631.391
			c4.662,0,7.458-2.295,7.458-5.953v-0.143c0-4.018-2.939-6.024-7.53-6.024h-9.18v12.12H95.641z"/>
		<path fill="#000000" d="M122.389,632.538v-0.144c0-14.415,11.618-26.104,27.109-26.104c15.49,0,26.965,11.546,26.965,25.961v0.144
			c0,14.415-11.618,26.104-27.109,26.104S122.389,646.953,122.389,632.538z M162.191,632.538v-0.144
			c0-7.315-5.164-13.555-12.837-13.555s-12.766,6.168-12.766,13.411v0.144c0,7.243,5.234,13.555,12.909,13.555
			C157.1,645.949,162.191,639.781,162.191,632.538z"/>
		<path fill="#000000" d="M193.816,619.485h-14.988v-12.19h43.962v12.19h-15.061v38.01h-13.913V619.485L193.816,619.485z"/>
		<path fill="#000000" d="M241.146,619.485h-14.988v-12.19h43.962v12.19h-15.061v38.01h-13.913V619.485z"/>
		<path fill="#000000" d="M276.213,607.295h40.376v11.761h-26.606v7.674h24.097v10.973h-24.097v7.961h26.966v11.833h-40.734
			L276.213,607.295L276.213,607.295z"/>
		<path fill="#000000" d="M324.117,607.295h23.738c7.674,0,12.98,2.008,16.352,5.379c2.94,2.939,4.446,6.74,4.446,11.688v0.145
			c0,7.745-4.088,12.837-10.327,15.489l11.978,17.499h-15.993l-10.111-15.203h-6.168v15.203h-13.913L324.117,607.295
			L324.117,607.295z M347.281,631.391c4.662,0,7.459-2.295,7.459-5.953v-0.143c0-4.018-2.939-6.024-7.529-6.024h-9.181v12.12
			H347.281z"/>
		<path fill="#000000" d="M375.68,607.295h19.436c17.857,0,28.256,10.326,28.256,24.813v0.145c0,14.485-10.542,25.243-28.543,25.243
			H375.68V607.295z M389.593,619.558v25.603h5.666c8.391,0,13.912-4.59,13.912-12.693v-0.145c0-8.031-5.521-12.765-13.912-12.765
			H389.593L389.593,619.558z"/>
		<path fill="#000000" d="M444.453,606.936h13.411l21.371,50.56h-14.917l-3.586-9.035h-19.435l-3.586,9.035h-14.56L444.453,606.936z
			 M456.646,637.631l-5.594-14.2l-5.665,14.2H456.646z"/>
		<path fill="#000000" d="M484.11,607.295h14.702l11.977,19.435l11.978-19.435h14.702v50.2h-13.842v-28.83l-12.838,19.65h-0.286
			l-12.767-19.578v28.758H484.11V607.295z"/>
	</g>
</g>
<g id="o">
	<path fill="#000000" d="M75.667,451.489c-20.378,0-36.957,16.578-36.957,36.954c0,20.374,16.579,36.951,36.957,36.951
		s36.956-16.577,36.956-36.951C112.623,468.067,96.045,451.489,75.667,451.489 M75.667,521.153
		c-18.043,0-32.724-14.674-32.724-32.714c0-18.041,14.681-32.719,32.724-32.719s32.722,14.678,32.722,32.719
		C108.389,506.479,93.71,521.153,75.667,521.153"/>
	<path fill="#000000" d="M75.667,412.772C33.944,412.772,0,446.719,0,488.438S33.944,564.1,75.667,564.1
		s75.666-33.942,75.666-75.662S117.391,412.772,75.667,412.772 M75.667,559.869c-39.39,0-71.434-32.04-71.434-71.426
		c0-39.388,32.044-71.431,71.434-71.431c39.388,0,71.433,32.043,71.433,71.431C147.1,527.829,115.055,559.869,75.667,559.869"/>
</g>
<g id="p">
	<path fill="#000000" d="M253.342,412.198H177.17v152.021h4.232V416.435h71.939c28.276,0,51.28,23.004,51.28,51.277
		c0,28.275-23.004,51.278-51.28,51.278h-25.543v4.236h25.543c30.611,0,55.516-24.903,55.516-55.516
		C308.857,437.102,283.953,412.198,253.342,412.198"/>
	<path fill="#000000" d="M270.146,467.714c0-9.267-7.538-16.804-16.805-16.804h-37.463V564.22h4.235V455.146h33.228
		c6.932,0,12.572,5.636,12.572,12.566c0,6.932-5.641,12.566-12.572,12.566h-25.543v4.236h25.543
		C262.608,484.517,270.146,476.979,270.146,467.714"/>
</g>
<g id="e">
	<polyline fill="#000000" points="446.548,452.347 364.857,452.343 364.857,471.2 417.689,471.2 417.689,505.679 364.857,505.679
		364.857,524.536 447.592,524.536 447.592,520.301 369.093,520.301 369.093,509.913 422.461,509.913 422.461,466.966 
		369.093,466.966 369.093,456.577 446.548,456.582 	"/>
	<polygon fill="#000000" points="330.381,417.866 446.55,417.871 446.55,413.635 326.147,413.631 326.147,563.25 447.592,563.25
		447.592,559.013 330.381,559.013 	"/>
</g>
<g id="n">
	<g>
		<polygon fill="#000000" points="507.161,561.935 511.397,561.935 511.397,487.515 572.361,561.935 577.837,561.935
			507.161,475.663 		"/>
		<polygon fill="#000000" points="570.938,414.942 566.702,414.942 566.702,487.26 507.463,414.942 501.988,414.942
			570.938,499.109 		"/>
		<rect x="605.414" y="414.943" fill="#000000" width="4.234" height="146.991"/>
		<rect x="468.451" y="414.943" fill="#000000" width="4.233" height="146.991"/>
	</g>
</g>
</svg>
